<svg data-v-fde0c5aa="" xmlns="http://www.w3.org/2000/svg" viewBox="0 0 300 300" class="iconAbove"><!----><defs data-v-fde0c5aa=""><!----></defs><rect data-v-fde0c5aa="" fill="transparent" x="0" y="0" width="300px" height="300px" class="logo-background-square"></rect><defs data-v-fde0c5aa=""><!----></defs><g data-v-fde0c5aa="" id="a04e7ba3-04bc-4367-80bb-421f2cd58e34" fill="#FFFFFF" transform="matrix(4.290428880857881,0,0,4.290428880857881,17.03960382670775,171.764025511385)"><path d="M4.27 8.37L4.27 7.29L8.02 7.29L8.02 12.29L7.21 12.29L6.94 11.23L6.94 11.23Q6.10 12.46 4.47 12.46L4.47 12.46L4.47 12.46Q2.63 12.46 1.66 11.21L1.66 11.21L1.66 11.21Q0.69 9.97 0.69 7.49L0.69 7.49L0.69 7.49Q0.69 5.04 1.69 3.78L1.69 3.78L1.69 3.78Q2.70 2.52 4.54 2.52L4.54 2.52L4.54 2.52Q6.10 2.52 7.06 3.40L7.06 3.40L7.06 3.40Q8.02 4.28 8.02 5.96L8.02 5.96L6.76 5.96L6.76 5.96Q6.76 4.80 6.17 4.23L6.17 4.23L6.17 4.23Q5.57 3.65 4.54 3.65L4.54 3.65L4.54 3.65Q3.32 3.65 2.65 4.54L2.65 4.54L2.65 4.54Q1.97 5.42 1.97 7.14L1.97 7.14L1.97 7.84L1.97 7.84Q1.97 9.58 2.61 10.45L2.61 10.45L2.61 10.45Q3.25 11.33 4.47 11.33L4.47 11.33L4.47 11.33Q5.66 11.33 6.21 10.65L6.21 10.65L6.21 10.65Q6.76 9.98 6.76 8.60L6.76 8.60L6.76 8.37L4.27 8.37ZM12.12 12.46L12.12 12.46Q10.82 12.46 10.16 11.52L10.16 11.52L10.16 11.52Q9.49 10.57 9.49 8.61L9.49 8.61L9.49 8.61Q9.49 6.65 10.16 5.71L10.16 5.71L10.16 5.71Q10.82 4.76 12.12 4.76L12.12 4.76L12.12 4.76Q13.43 4.76 14.09 5.71L14.09 5.71L14.09 5.71Q14.76 6.65 14.76 8.61L14.76 8.61L14.76 8.61Q14.76 10.57 14.09 11.52L14.09 11.52L14.09 11.52Q13.43 12.46 12.12 12.46L12.12 12.46ZM12.12 11.44L12.12 11.44Q13.55 11.44 13.55 8.88L13.55 8.88L13.55 8.34L13.55 8.34Q13.55 5.78 12.12 5.78L12.12 5.78L12.12 5.78Q10.70 5.78 10.70 8.34L10.70 8.34L10.70 8.88L10.70 8.88Q10.70 11.44 12.12 11.44L12.12 11.44ZM18.51 12.46L18.51 12.46Q17.21 12.46 16.54 11.52L16.54 11.52L16.54 11.52Q15.88 10.57 15.88 8.61L15.88 8.61L15.88 8.61Q15.88 6.65 16.54 5.71L16.54 5.71L16.54 5.71Q17.21 4.76 18.51 4.76L18.51 4.76L18.51 4.76Q19.81 4.76 20.48 5.71L20.48 5.71L20.48 5.71Q21.14 6.65 21.14 8.61L21.14 8.61L21.14 8.61Q21.14 10.57 20.48 11.52L20.48 11.52L20.48 11.52Q19.81 12.46 18.51 12.46L18.51 12.46ZM18.51 11.44L18.51 11.44Q19.94 11.44 19.94 8.88L19.94 8.88L19.94 8.34L19.94 8.34Q19.94 5.78 18.51 5.78L18.51 5.78L18.51 5.78Q17.08 5.78 17.08 8.34L17.08 8.34L17.08 8.88L17.08 8.88Q17.08 11.44 18.51 11.44L18.51 11.44ZM24.54 12.46L24.54 12.46Q23.45 12.46 22.86 11.51L22.86 11.51L22.86 11.51Q22.26 10.56 22.26 8.60L22.26 8.60L22.26 8.60Q22.26 6.69 22.87 5.73L22.87 5.73L22.87 5.73Q23.48 4.76 24.46 4.76L24.46 4.76L24.46 4.76Q25.00 4.76 25.42 4.99L25.42 4.99L25.42 4.99Q25.84 5.22 26.03 5.63L26.03 5.63L26.10 5.63L26.10 2.17L27.24 2.17L27.24 12.29L26.38 12.29L26.22 11.44L26.15 11.44L26.15 11.44Q25.89 11.94 25.47 12.20L25.47 12.20L25.47 12.20Q25.05 12.46 24.54 12.46L24.54 12.46ZM24.78 11.44L24.78 11.44Q26.10 11.44 26.10 8.88L26.10 8.88L26.10 8.40L26.10 8.40Q26.10 5.78 24.78 5.78L24.78 5.78L24.78 5.78Q24.11 5.78 23.79 6.38L23.79 6.38L23.79 6.38Q23.46 6.99 23.46 8.34L23.46 8.34L23.46 8.88L23.46 8.88Q23.46 10.23 23.79 10.84L23.79 10.84L23.79 10.84Q24.11 11.44 24.78 11.44L24.78 11.44ZM32.26 12.29L32.26 2.69L33.49 2.69L33.49 6.82L37.35 6.82L37.35 2.69L38.58 2.69L38.58 12.29L37.35 12.29L37.35 7.94L33.49 7.94L33.49 12.29L32.26 12.29ZM42.76 12.46L42.76 12.46Q41.45 12.46 40.79 11.52L40.79 11.52L40.79 11.52Q40.12 10.57 40.12 8.61L40.12 8.61L40.12 8.61Q40.12 6.65 40.79 5.71L40.79 5.71L40.79 5.71Q41.45 4.76 42.76 4.76L42.76 4.76L42.76 4.76Q44.06 4.76 44.72 5.71L44.72 5.71L44.72 5.71Q45.39 6.65 45.39 8.61L45.39 8.61L45.39 8.61Q45.39 10.57 44.72 11.52L44.72 11.52L44.72 11.52Q44.06 12.46 42.76 12.46L42.76 12.46ZM42.76 11.44L42.76 11.44Q44.18 11.44 44.18 8.88L44.18 8.88L44.18 8.34L44.18 8.34Q44.18 5.78 42.76 5.78L42.76 5.78L42.76 5.78Q41.33 5.78 41.33 8.34L41.33 8.34L41.33 8.88L41.33 8.88Q41.33 11.44 42.76 11.44L42.76 11.44ZM46.79 12.29L46.79 4.93L47.66 4.93L47.81 5.78L47.89 5.78L47.89 5.78Q48.44 4.76 49.57 4.76L49.57 4.76L49.57 4.76Q50.76 4.76 51.14 5.82L51.14 5.82L51.14 5.82Q51.42 5.31 51.91 5.03L51.91 5.03L51.91 5.03Q52.39 4.76 52.93 4.76L52.93 4.76L52.93 4.76Q54.67 4.76 54.67 6.99L54.67 6.99L54.67 12.29L53.52 12.29L53.52 7.07L53.52 7.07Q53.52 6.36 53.27 6.07L53.27 6.07L53.27 6.07Q53.02 5.78 52.57 5.78L52.57 5.78L52.57 5.78Q52.04 5.78 51.67 6.33L51.67 6.33L51.67 6.33Q51.31 6.87 51.31 7.80L51.31 7.80L51.31 12.29L50.16 12.29L50.16 7.07L50.16 7.07Q50.16 6.36 49.91 6.07L49.91 6.07L49.91 6.07Q49.66 5.78 49.21 5.78L49.21 5.78L49.21 5.78Q48.68 5.78 48.31 6.33L48.31 6.33L48.31 6.33Q47.94 6.87 47.94 7.80L47.94 7.80L47.94 12.29L46.79 12.29ZM58.88 12.46L58.88 12.46Q57.48 12.46 56.79 11.54L56.79 11.54L56.79 11.54Q56.10 10.63 56.10 8.61L56.10 8.61L56.10 8.61Q56.10 6.64 56.78 5.70L56.78 5.70L56.78 5.70Q57.47 4.76 58.87 4.76L58.87 4.76L58.87 4.76Q60.10 4.76 60.70 5.58L60.70 5.58L60.70 5.58Q61.29 6.40 61.29 8.22L61.29 8.22L61.29 8.95L57.30 8.95L57.30 8.95Q57.32 10.23 57.70 10.84L57.70 10.84L57.70 10.84Q58.09 11.44 58.91 11.44L58.91 11.44L58.91 11.44Q59.47 11.44 59.82 10.99L59.82 10.99L59.82 10.99Q60.16 10.54 60.16 9.79L60.16 9.79L61.29 9.79L61.29 9.79Q61.29 11.02 60.63 11.74L60.63 11.74L60.63 11.74Q59.96 12.46 58.88 12.46L58.88 12.46ZM57.32 7.92L60.09 7.92L60.09 7.92Q60.09 6.87 59.78 6.33L59.78 6.33L59.78 6.33Q59.47 5.78 58.87 5.78L58.87 5.78L58.87 5.78Q58.13 5.78 57.76 6.31L57.76 6.31L57.76 6.31Q57.39 6.83 57.32 7.92L57.32 7.92Z"></path></g><defs data-v-fde0c5aa=""><!----></defs><g data-v-fde0c5aa="" id="5cea4b65-c035-425e-b7cc-ddcfc7842b67" stroke="none" fill="#0984e3" transform="matrix(0.19116945089385287,0,0,0.19116945089385287,54.42134340137961,23.348500184640372)"><path d="M554.5 409.2l-39.7 10.1v292.8c0 9.5-7.7 17.2-17.2 17.2s-17.2-7.7-17.2-17.2v-284l-292.1 74.6v209.4c0 9.5-7.7 17.2-17.2 17.2s-17.2-7.7-17.2-17.2V511.5L98 525.8c-1.4.4-2.9.5-4.3.5-7.7 0-14.7-5.2-16.7-12.9-2.3-9.2 3.2-18.6 12.4-20.9l456.4-116.6c9.2-2.4 18.6 3.2 20.9 12.4 2.5 9.2-3 18.5-12.2 20.9z"></path><path d="M307.2 499.5h21.1v21.1h-21.1zM334.5 499.5h21.1v21.1h-21.1zM307.2 525.6h21.1v21.1h-21.1zM334.5 525.6h21.1v21.1h-21.1zM390.3 730.9c-6.8 0-12.3-5.5-12.3-12.3v-90.9h-81.6v90.9c0 6.8-5.5 12.3-12.3 12.3s-12.3-5.5-12.3-12.3V615.4c0-6.8 5.5-12.3 12.3-12.3h106.1c6.8 0 12.3 5.5 12.3 12.3v103.2c.1 6.8-5.4 12.3-12.2 12.3zM914.5 462.4l-27.4 7v201.7c0 6.5-5.3 11.8-11.8 11.8s-11.9-5.3-11.9-11.8V475.5l-201.1 51.4v144.2c0 6.5-5.3 11.8-11.9 11.8-6.5 0-11.8-5.3-11.8-11.8V532.9l-38.4 9.8c-1 .3-2 .4-2.9.4-5.3 0-10.1-3.6-11.5-8.9-1.6-6.3 2.2-12.8 8.6-14.4l314.3-80.3c6.3-1.6 12.8 2.2 14.4 8.5 1.6 6.4-2.3 12.8-8.6 14.4z"></path><g><path d="M744.2 524.6h14.5v14.5h-14.5zM763.1 524.6h14.5v14.5h-14.5zM744.2 542.6h14.5v14.5h-14.5zM763.1 542.6h14.5v14.5h-14.5z"></path></g><g><path d="M801.5 684c-4.7 0-8.5-3.8-8.5-8.5v-62.6h-56.2v62.6c0 4.7-3.8 8.5-8.5 8.5s-8.5-3.8-8.5-8.5v-71.1c0-4.7 3.8-8.5 8.5-8.5h73.1c4.7 0 8.5 3.8 8.5 8.5v71.1c.1 4.7-3.7 8.5-8.4 8.5z"></path></g><g><path d="M811 285.7l-19.5 5v143.9c0 4.7-3.8 8.5-8.4 8.5-4.7 0-8.5-3.8-8.5-8.5V295l-143.5 36.7v102.9c0 4.7-3.8 8.5-8.5 8.5s-8.5-3.8-8.5-8.5V336l-27.4 7c-.7.2-1.4.3-2.1.3-3.8 0-7.2-2.5-8.2-6.4-1.1-4.5 1.6-9.1 6.1-10.3l224.2-57.3c4.5-1.2 9.1 1.6 10.3 6.1 1.2 4.6-1.5 9.2-6 10.3z"></path><path d="M689.5 330.1h10.4v10.4h-10.4zM702.9 330.1h10.4v10.4h-10.4zM689.5 342.9h10.4v10.4h-10.4zM702.9 342.9h10.4v10.4h-10.4z"></path><g><path d="M730.4 443.8c-3.3 0-6-2.7-6-6v-44.7h-40.1v44.7c0 3.3-2.7 6-6 6s-6-2.7-6-6V387c0-3.3 2.7-6 6-6h52.1c3.3 0 6 2.7 6 6v50.7c0 3.4-2.7 6.1-6 6.1z"></path></g></g></g><!----></svg>